<?xml version="1.0" encoding="utf-8"?>
<!-- Generator: Adobe Illustrator 19.2.1, SVG Export Plug-In . SVG Version: 6.00 Build 0)  -->
<svg version="1.1" xmlns="http://www.w3.org/2000/svg" xmlns:xlink="http://www.w3.org/1999/xlink" x="0px" y="0px"
	 viewBox="0 0 120 36" enable-background="new 0 0 120 36" xml:space="preserve">
<g id="Layer_6">
</g>
<g id="publisher_logo">
</g>
<g id="product_watermark">
</g>
<g id="favicon">
</g>
<g id="product_logo_icon">
</g>
<g id="product_full_logo">
	<g>
		<g>
			<path fill="#1F3E78" d="M55.3,19.6v-6.9c0-1.3-0.2-2.3-1.7-2.3c-1,0-2,0.6-2.8,1.2c0,0.1,0,0.3,0,0.4v7.7H48v-6.9
				c0-1.3-0.2-2.3-1.6-2.3c-1,0-2,0.6-2.8,1.2v8.1h-2.9V8.2h2.4l0.3,1.3c1.3-1,2.6-1.5,3.9-1.5c1.4,0,2.5,0.7,3,1.7
				c1.3-1.1,2.8-1.7,4.1-1.7c2,0,3.8,0.9,3.8,3.9v7.8H55.3z"/>
			<path fill="#1F3E78" d="M67.8,19.6l-0.5-1c-0.8,0.7-1.8,1.3-3.3,1.3c-2.1,0-3.8-1.4-3.8-3.7c0-2.4,1.9-3.7,4.8-3.8l2-0.1
				c0-0.1,0-0.2,0-0.3c0-1.4-1-1.9-2.2-1.9c-1.3,0-2.2,0.4-3,0.8L61,9.1c1.5-1,3-1.3,4.5-1.3c2.8,0,4.6,1.2,4.6,4.2v4.5
				c0,1.6,0,2.5,0.2,3H67.8z M67.1,14.4l-1.6,0c-1.6,0-2.3,0.6-2.3,1.5c0,0.9,0.7,1.6,1.9,1.6c1,0,1.7-0.4,2.1-0.7V14.4z"/>
			<path fill="#1F3E78" d="M76.7,19.8c-2,0-2.8-1.1-2.8-2.7v-6.8h-2V8.2h2V5.5l2.9-0.9v3.5h3.6l-0.8,2.2h-2.7v5.8
				c0,0.9,0.3,1.3,1.1,1.3c0.7,0,1.5-0.3,1.9-0.6l0.8,1.8C79.3,19.5,77.8,19.8,76.7,19.8z"/>
			<path fill="#069AD7" d="M83.9,6.4c-1,0-1.8-0.8-1.8-1.8c0-0.9,0.8-1.7,1.8-1.7c1,0,1.8,0.8,1.8,1.7S84.9,6.4,83.9,6.4z
				 M82.4,19.6V8.2h2.9v11.5H82.4z"/>
			<path fill="#069AD7" d="M93.5,19.8c-3.7,0-5.6-2.7-5.6-5.9c0-3.5,2.5-6.1,5.9-6.1c1.5,0,2.6,0.4,3.3,0.8l0,2.4
				c-0.8-0.6-1.7-0.9-2.9-0.9c-2,0-3.4,1.5-3.4,3.7c0,2,1.1,3.7,3.3,3.7c1.1,0,1.9-0.3,2.7-0.8l0.7,1.9
				C96.7,19.2,95.1,19.8,93.5,19.8z"/>
		</g>
		<g>
			<path fill="#999898" d="M42.9,27.1l-0.3-0.8h-1.1l-0.3,0.8h-0.6l1.3-3.2h0.4l1.3,3.2H42.9z M42.2,25.1c-0.1-0.2-0.1-0.3-0.1-0.4
				h0c0,0.1-0.1,0.2-0.1,0.4l-0.3,0.7h0.8L42.2,25.1z"/>
			<path fill="#999898" d="M44.7,26h-0.2v1.1h-0.6v-3.2h0.8c0.7,0,1.2,0.4,1.2,1C45.9,25.4,45.6,26,44.7,26z M44.7,24.4h-0.2v1.1
				h0.2c0.4,0,0.6-0.2,0.6-0.6C45.3,24.6,45.1,24.4,44.7,24.4z"/>
			<path fill="#999898" d="M48.1,27.1c-0.5-0.8-0.7-1.2-0.8-1.3H47v1.3h-0.6v-3.2h0.9c0.8,0,1.1,0.4,1.1,0.9c0,0.4-0.3,0.7-0.6,0.8
				v0c0.1,0.1,0.5,0.6,1,1.5H48.1z M47.3,24.4H47v1h0.3c0.3,0,0.5-0.2,0.5-0.5C47.8,24.6,47.6,24.4,47.3,24.4z"/>
			<path fill="#999898" d="M49.1,27.1v-3.2h1.8l-0.2,0.5h-1v0.8h1v0.5h-1v0.9h1.2v0.5H49.1z"/>
			<path fill="#999898" d="M53.8,27.1l-1.5-1.9c-0.1-0.2-0.2-0.3-0.3-0.4h0c0,0.1,0,0.3,0,0.4v1.9h-0.6v-3.2h0.6l1.4,1.8
				c0.2,0.2,0.2,0.3,0.3,0.4h0c0-0.1,0-0.3,0-0.5v-1.8h0.6v3.2H53.8z"/>
			<path fill="#999898" d="M56,27.1H55v-3.2h1c1.2,0,1.8,0.6,1.8,1.6C57.8,26.4,57.1,27.1,56,27.1z M56,24.4h-0.4v2.2H56
				c0.8,0,1.2-0.5,1.2-1.1C57.2,24.8,56.8,24.4,56,24.4z"/>
			<path fill="#999898" d="M58.3,27.1v-3.2h0.6v3.2H58.3z"/>
			<path fill="#999898" d="M59.3,27.1l1.6-2.7l-1.4,0l-0.1-0.5h2.5l-1.6,2.7l1.6,0v0.5H59.3z"/>
			<path fill="#999898" d="M64.4,27.1l-0.3-0.8H63l-0.3,0.8h-0.6l1.3-3.2h0.4l1.3,3.2H64.4z M63.7,25.1c-0.1-0.2-0.1-0.3-0.1-0.4h0
				c0,0.1-0.1,0.2-0.1,0.4l-0.3,0.7h0.8L63.7,25.1z"/>
			<path fill="#999898" d="M65.4,28c-0.1,0-0.3,0-0.4-0.1l0.1-0.4c0.1,0,0.2,0,0.3,0c0.3,0,0.4-0.2,0.4-0.6v-3h0.6V27
				C66.4,27.6,66.1,28,65.4,28z"/>
			<path fill="#999898" d="M67,27.1v-3.2h1.8l-0.2,0.5h-1v0.8h1v0.5h-1v0.9h1.2v0.5H67z"/>
			<path fill="#999898" d="M70.5,27.1v-3.2h0.6v3.2H70.5z"/>
			<path fill="#999898" d="M74.1,27.1l-1.5-1.9c-0.1-0.2-0.2-0.3-0.3-0.4h0c0,0.1,0,0.3,0,0.4v1.9h-0.6v-3.2h0.6l1.4,1.8
				c0.2,0.2,0.2,0.3,0.3,0.4h0c0-0.1,0-0.3,0-0.5v-1.8h0.6v3.2H74.1z"/>
			<path fill="#999898" d="M77.5,24.4h-0.9v2.7H76v-2.7h-0.9v-0.5h2.6L77.5,24.4z"/>
			<path fill="#999898" d="M78,27.1v-3.2h1.8l-0.2,0.5h-1v0.8h1v0.5h-1v0.9h1.2v0.5H78z"/>
			<path fill="#999898" d="M80.3,27.1v-3.2h0.6v2.7H82v0.5H80.3z"/>
			<path fill="#999898" d="M82.4,27.1v-3.2H83v3.2H82.4z"/>
			<path fill="#999898" d="M85.1,27.1c-1,0-1.6-0.7-1.6-1.6c0-1,0.7-1.7,1.8-1.7c0.4,0,0.7,0.1,0.9,0.2l0,0.6
				c-0.2-0.1-0.5-0.2-0.9-0.2c-0.8,0-1.2,0.5-1.2,1.1c0,0.7,0.4,1.2,1.1,1.2c0.2,0,0.4,0,0.5-0.1v-1.1h0.6v1.4
				C86.1,27,85.7,27.1,85.1,27.1z"/>
			<path fill="#999898" d="M87,27.1v-3.2h1.8l-0.2,0.5h-1v0.8h1v0.5h-1v0.9h1.2v0.5H87z"/>
			<path fill="#999898" d="M91.7,27.1l-1.5-1.9c-0.1-0.2-0.2-0.3-0.3-0.4h0c0,0.1,0,0.3,0,0.4v1.9h-0.6v-3.2h0.6l1.4,1.8
				c0.2,0.2,0.2,0.3,0.3,0.4h0c0-0.1,0-0.3,0-0.5v-1.8h0.6v3.2H91.7z"/>
			<path fill="#999898" d="M95,24.4h-0.9v2.7h-0.6v-2.7h-0.9v-0.5h2.6L95,24.4z"/>
			<path fill="#999898" d="M95.5,27.1v-3.2h1.8l-0.2,0.5h-1v0.8h1v0.5h-1v0.9h1.2v0.5H95.5z"/>
		</g>
	</g>
</g>
<g id="Layer_7">
	<path fill="#059AD6" d="M18.1,0.4C8.6,0.4,0.9,8.1,0.9,17.5c0,9.5,7.7,17.2,17.2,17.2c0.2,0,0.5,0,0.7,0
		c8.6-0.4,15.6-7.1,16.4-15.5c0-0.5,0.1-1.1,0.1-1.6C35.2,8.1,27.5,0.4,18.1,0.4z"/>
	<path opacity="0.3" fill="#1F3E78" d="M15.7,11.2l-0.2,6.8l-4,7.4l7.3,9.2c8.6-0.4,15.6-7.1,16.4-15.5l-8.5-9.9L15.7,11.2z"/>
	<path fill="#FFFFFF" d="M26.1,21.1c0,0.1,0,0.2,0,0.3c0,0.3-0.1,0.6-0.3,0.9c-0.2,0.4-0.6,0.8-1,0.9c-0.3,0.1-0.6,0.1-0.9,0.1
		c-0.3,0-0.5-0.1-0.7-0.2c-0.3-0.2-0.5-0.5-0.7-0.8c-0.2-0.4-0.2-0.8-0.3-1.2c0-0.4-0.1-0.8-0.1-1.2c0-0.6,0-1.1,0.1-1.7
		c0-0.4,0.1-0.7,0.1-1.1c0-0.4,0.1-0.8,0.1-1.3c0-0.4,0.1-0.8,0.1-1.2c0-0.4,0.1-0.8,0.1-1.3c0-0.5,0-1,0.1-1.5c0,0,0,0,0,0
		c1.4,0,2.7,0,4.1,0c0-0.9,0-1.8,0-2.7c0,0,0,0,0,0c-0.6,0-1.1,0-1.7,0c-1.1,0-2.3,0-3.4,0c-1.6,0-3.2,0-4.8,0c-0.5,0-1.1,0-1.6,0.1
		c-0.5,0-0.9,0.1-1.4,0.1c-0.4,0.1-0.8,0.1-1.2,0.3c-0.7,0.2-1.2,0.7-1.6,1.3c-0.2,0.4-0.4,0.8-0.5,1.1c-0.3,0.7-0.5,1.4-0.8,2.1
		c0,0,0,0,0,0.1c0.2,0,0.4,0,0.6,0c0,0,0,0,0,0c0.1-0.1,0.2-0.2,0.2-0.4c0.2-0.3,0.3-0.6,0.5-0.8c0.3-0.5,0.8-0.8,1.3-1.1
		c0.5-0.2,1-0.3,1.5-0.3c0.3,0,0.6,0,1,0c0.1,0,0.1,0,0.2,0c0,0,0,0,0,0.1c0,0.4,0,0.7,0,1.1c0,0.6-0.1,1.1-0.1,1.7
		c-0.1,0.5-0.1,0.9-0.2,1.4c-0.1,0.7-0.3,1.4-0.5,2c-0.2,0.8-0.6,1.5-0.9,2.3c-0.3,0.6-0.7,1.2-1.1,1.8c-0.2,0.3-0.5,0.7-0.7,1
		c-0.1,0.2-0.2,0.4-0.3,0.6c-0.1,0.3-0.1,0.6,0,0.8c0.2,1.1,1.2,1.6,2,1.6c0.3,0,0.5-0.1,0.7-0.2c0.4-0.2,0.7-0.5,0.9-0.8
		c0.2-0.4,0.4-0.8,0.5-1.2c0.3-0.8,0.4-1.7,0.5-2.6c0-0.3,0.1-0.6,0.1-0.9c0-0.3,0.1-0.6,0.1-0.9c0-0.3,0.1-0.6,0.1-0.9
		c0-0.3,0.1-0.6,0.1-1c0-0.3,0.1-0.6,0.1-0.9c0-0.3,0.1-0.6,0.1-0.9c0-0.3,0-0.6,0.1-0.9c0-0.3,0.1-0.7,0.1-1c0-0.3,0-0.6,0.1-0.9
		c0-0.3,0.1-0.7,0.1-1c0-0.1,0-0.2,0-0.3c1.3,0,2.5,0,3.8,0c0,0.1,0,0.2,0,0.3c0,0.3,0,0.7-0.1,1c0,0.3,0,0.6-0.1,0.9
		c0,0.3-0.1,0.6-0.1,1c0,0.3-0.1,0.6-0.1,0.9c0,0.3-0.1,0.6-0.1,0.9c0,0.3-0.1,0.6-0.1,0.9c0,0.3-0.1,0.7-0.1,1
		c0,0.4-0.1,0.7-0.1,1.1c0,0.3,0,0.7-0.1,1c0,0.3,0,0.7,0,1c0,0.4,0,0.8,0,1.2c0,0.4,0.1,0.8,0.3,1.2c0.4,1,1.1,1.6,2,1.9
		c0.5,0.1,1,0.2,1.5,0.1c0.3,0,0.6-0.1,0.9-0.3c0.6-0.3,1-0.7,1.4-1.2c0.3-0.5,0.5-0.9,0.7-1.5c0.2-0.6,0.3-1.2,0.4-1.8
		c0-0.1,0-0.2,0-0.3C26.5,21.1,26.3,21.1,26.1,21.1z"/>
</g>
</svg>
