<?xml version="1.0" encoding="utf-8"?>
<!-- Generator: Adobe Illustrator 19.2.1, SVG Export Plug-In . SVG Version: 6.00 Build 0)  -->
<svg version="1.1" xmlns="http://www.w3.org/2000/svg" xmlns:xlink="http://www.w3.org/1999/xlink" x="0px" y="0px"
	 viewBox="0 0 120 36" enable-background="new 0 0 120 36" xml:space="preserve">
<g id="publisher_logo">
</g>
<g id="product_watermark">
</g>
<g id="favicon">
</g>
<g id="product_logo_icon">
</g>
<g id="product_full_logo">
</g>
<g id="Layer_7">
	<g>
		<path fill="#88CC44" d="M20.7,26.7c0-2.3-1.8-4.1-4.1-4.1c-2.3,0-4.1,1.8-4.1,4.1h0v1.6h0c0,2.3,1.8,4.1,4.1,4.1
			c2.3,0,4.1-1.8,4.1-4.1L20.7,26.7L20.7,26.7z M18.4,28.3c0,1-0.8,1.8-1.8,1.8c-1,0-1.8-0.8-1.8-1.8h0v-1.6h0c0-1,0.8-1.8,1.8-1.8
			c1,0,1.8,0.8,1.8,1.8V28.3z"/>
		<path fill="#88CC44" d="M18.4,20.8V31c0,0,0,0,0,0c0,0.6,0.5,1.2,1.2,1.2c0.6,0,1.2-0.5,1.2-1.2h0V20.7h0c0-0.6-0.5-1.1-1.2-1.1
			C18.9,19.6,18.4,20.1,18.4,20.8L18.4,20.8L18.4,20.8C18.4,20.8,18.4,20.8,18.4,20.8C18.4,20.8,18.4,20.8,18.4,20.8z"/>
		<path fill="#88CC44" d="M30.9,26.7c0-2.3-1.8-4.1-4.1-4.1c-2.3,0-4.1,1.8-4.1,4.1h0v1.6h0c0,2.3,1.8,4.1,4.1,4.1
			c2.3,0,4.1-1.8,4.1-4.1L30.9,26.7L30.9,26.7z M28.6,28.3c0,1-0.8,1.8-1.8,1.8c-1,0-1.8-0.8-1.8-1.8h0v-1.6h0c0-1,0.8-1.8,1.8-1.8
			c1,0,1.8,0.8,1.8,1.8V28.3z"/>
		<path fill="#88CC44" d="M28.6,27.5v3.7c0,0,0,0,0,0c0,0.6,0.5,1.2,1.2,1.2c0.6,0,1.2-0.5,1.2-1.2l0,0v-3.7h0
			c0-0.6-0.5-1.1-1.2-1.1C29.1,26.3,28.6,26.8,28.6,27.5L28.6,27.5L28.6,27.5C28.6,27.5,28.6,27.5,28.6,27.5
			C28.6,27.5,28.6,27.5,28.6,27.5z"/>
		<path fill="#88CC44" d="M68.1,27.5v-0.8h0c0-2.3-1.8-4.1-4.1-4.1c-2.3,0-4.1,1.8-4.1,4.1h0v1.6h0V31c0,0,0,0,0,0
			c0,0.6,0.5,1.2,1.2,1.2c0.6,0,1.2-0.5,1.2-1.2l0,0v-3.6l0,0v-0.7h0c0-1,0.8-1.8,1.8-1.8c1,0,1.8,0.8,1.8,1.8v1.6h0V31c0,0,0,0,0,0
			c0,0.6,0.5,1.2,1.2,1.2c0.6,0,1.2-0.5,1.2-1.2h0L68.1,27.5L68.1,27.5z"/>
		<path fill="#88CC44" d="M74,27.5v-0.8h0c0-2.3-1.8-4.1-4.1-4.1c-2.3,0-4.1,1.8-4.1,4.1h0v1.6l0,0V31c0,0,0,0,0,0
			c0,0.6,0.5,1.2,1.2,1.2c0.6,0,1.2-0.5,1.2-1.2l0,0v-3.6l0,0v-0.7h0c0-1,0.8-1.8,1.8-1.8c1,0,1.8,0.8,1.8,1.8v1.6h0V31c0,0,0,0,0,0
			c0,0.6,0.5,1.2,1.2,1.2c0.6,0,1.2-0.5,1.2-1.2h0L74,27.5L74,27.5z"/>
		<path fill="#88CC44" d="M32.9,28.3c0,2.3,1.8,4.1,4.1,4.1c2.3,0,4.1-1.8,4.1-4.1l0,0v-1.6l0,0c0-2.3-1.8-4.1-4.1-4.1
			s-4.1,1.8-4.1,4.1L32.9,28.3L32.9,28.3z M35.2,26.7c0-1,0.8-1.8,1.8-1.8c1,0,1.8,0.8,1.8,1.8h0v1.6h0c0,1-0.8,1.8-1.8,1.8
			c-1,0-1.8-0.8-1.8-1.8V26.7z"/>
		<path fill="#88CC44" d="M35.2,34.3V24c0,0,0,0,0,0c0-0.6-0.5-1.2-1.2-1.2c-0.6,0-1.2,0.5-1.2,1.2h0v10.4h0c0,0.6,0.5,1.1,1.2,1.1
			C34.7,35.5,35.2,35,35.2,34.3L35.2,34.3L35.2,34.3C35.2,34.3,35.2,34.3,35.2,34.3C35.2,34.3,35.2,34.3,35.2,34.3z"/>
		<path fill="#88CC44" d="M62.2,27.5V24c0,0,0,0,0,0c0-0.6-0.5-1.2-1.2-1.2c-0.6,0-1.2,0.5-1.2,1.2h0v3.6h0c0,0.6,0.5,1.1,1.2,1.1
			C61.7,28.7,62.2,28.2,62.2,27.5L62.2,27.5L62.2,27.5C62.2,27.5,62.2,27.5,62.2,27.5C62.2,27.5,62.2,27.5,62.2,27.5z"/>
		<path fill="#88CC44" d="M47.2,30L47.2,30c-1,0-1.8-0.8-1.8-1.8v-7.5h0v0c0-0.6-0.5-1.2-1.2-1.2c-0.6,0-1.2,0.5-1.2,1.2v0l0,0v7.5
			h0c0,2.3,1.8,4.1,4.1,4.1h0h0l0,0l0,0c0.6,0,1.2-0.5,1.2-1.2C48.3,30.6,47.8,30,47.2,30z"/>
		<g>
			<path fill="#88CC44" d="M47.2,25.2h-2.9c-0.6,0-1.2-0.5-1.2-1.2c0-0.6,0.5-1.2,1.2-1.2h2.9c0.6,0,1.2,0.5,1.2,1.2
				C48.3,24.6,47.8,25.2,47.2,25.2z"/>
		</g>
		<g>
			<path fill="#88CC44" d="M61.8,31.2C61.8,31.2,61.8,31.2,61.8,31.2C61.8,31.2,61.8,31.2,61.8,31.2z"/>
		</g>
		<g>
			<path fill="#88CC44" d="M55.6,27.5L55.6,27.5l0-0.8c0-0.1,0-0.3,0-0.4h-3.4c0,0.1,0,0.3,0,0.4h0v1.6h0c0,0.1,0,0.3,0,0.4h4.5
				C56,28.6,55.6,28.1,55.6,27.5z"/>
			<path fill="#88CC44" d="M57.9,27.5L57.9,27.5c0,0.6-0.5,1.2-1.2,1.2h-0.2c0.1,0,0.1,0,0.2,0C57.4,28.7,57.9,28.1,57.9,27.5
				C57.9,27.5,57.9,27.5,57.9,27.5z"/>
			<path fill="#88CC44" d="M49.7,27.5c0-0.6,0.5-1.2,1.2-1.2h1.2c0.2-0.8,0.9-1.4,1.7-1.4c0.8,0,1.5,0.6,1.7,1.4h1.2
				c0.6,0,1.2,0.5,1.2,1.2v-0.8h0c0-2.3-1.8-4.1-4.1-4.1c-2.3,0-4.1,1.8-4.1,4.1h0v1.6h0c0,2.3,1.8,4.1,4.1,4.1
				c0.9,0,1.7-0.3,2.4-0.8c0,0,0,0,0,0c0,0,0.1,0,0.1-0.1c0,0,0,0,0,0c0.3-0.2,0.4-0.5,0.4-0.9c0-0.6-0.5-1.2-1.2-1.2
				c-0.3,0-0.5,0.1-0.7,0.2l0,0c-0.3,0.2-0.7,0.4-1.1,0.4c-0.8,0-1.5-0.6-1.7-1.4h-1.2C50.2,28.7,49.7,28.1,49.7,27.5z"/>
			<path fill="#88CC44" d="M57.9,27.5c0-0.6-0.5-1.2-1.2-1.2h-1.2c0,0.1,0,0.3,0,0.4v0.8h0c0,0.6,0.4,1.1,1,1.2h0.2
				C57.4,28.7,57.9,28.1,57.9,27.5z"/>
			<path fill="#88CC44" d="M52.1,28.3v-1.6h0c0-0.1,0-0.3,0-0.4h-1.2c-0.6,0-1.2,0.5-1.2,1.2c0,0.6,0.5,1.2,1.2,1.2h1.2
				C52.1,28.5,52.1,28.4,52.1,28.3L52.1,28.3z"/>
			<path opacity="0.4" fill="#88CC44" d="M52.1,28.3v-1.6h0c0-0.1,0-0.3,0-0.4h-1.2c-0.6,0-1.2,0.5-1.2,1.2c0,0.6,0.5,1.2,1.2,1.2
				h1.2C52.1,28.5,52.1,28.4,52.1,28.3L52.1,28.3z"/>
		</g>
		<path opacity="0.4" fill="#88CC44" d="M20.7,28.3v-1.6h0c0-1.6-1-3-2.3-3.7v8c0,0,0,0,0,0c0,0.3,0.1,0.6,0.3,0.8
			C19.9,31.1,20.7,29.8,20.7,28.3z"/>
		<path opacity="0.4" fill="#88CC44" d="M35.2,24c0-0.3-0.1-0.6-0.3-0.8c-1.2,0.7-2,2-2,3.5v1.6h0c0,1.6,1,3,2.3,3.7L35.2,24
			C35.2,24,35.2,24,35.2,24z"/>
		<path opacity="0.4" fill="#88CC44" d="M30.9,28.3v-0.8h0c0-0.6-0.5-1.1-1.2-1.1c-0.6,0-1.1,0.5-1.2,1.1h0v0c0,0,0,0,0,0
			c0,0,0,0,0,0v3.7c0,0,0,0,0,0c0,0.3,0.1,0.5,0.2,0.7C30,31.2,30.9,29.8,30.9,28.3z"/>
		<path opacity="0.4" fill="#88CC44" d="M62.2,24c0-0.3-0.1-0.6-0.3-0.8c-1.2,0.7-2,2-2,3.5v0v0.8h0c0,0.6,0.5,1.1,1.2,1.1
			c0.6,0,1.1-0.5,1.2-1.1h0v0v0v0v-0.7h0c0,0,0,0,0,0L62.2,24C62.2,24,62.2,24,62.2,24z"/>
		<path opacity="0.4" fill="#88CC44" d="M68.1,31L68.1,31l0-3.6h0v-0.8h0c0-1.1-0.5-2.1-1.2-2.9c-0.7,0.7-1.2,1.8-1.2,2.9h0v1.6V31
			c0,0,0,0,0,0c0,0.6,0.5,1.2,1.2,1.2C67.6,32.2,68.1,31.7,68.1,31z"/>
		<g>
			<path fill="#F48120" d="M95.5,19.4c0,0-5.4-2.2-5.4-2.2c-0.6-0.2-1.3,0-1.5,0.6c-0.2,0.6,0,1.3,0.6,1.5c0,0,5.4,2.2,5.4,2.2
				c0.6,0.2,1.3,0,1.5-0.6C96.4,20.3,96.1,19.6,95.5,19.4z"/>
			<path fill="#005AA9" d="M81.5,13.6c0,0-9.7-4-9.7-4c-0.6-0.2-1.3,0-1.5,0.6c-0.2,0.6,0,1.3,0.6,1.5c0,0,9.7,4,9.7,4
				c0.6,0.2,1.3,0,1.5-0.6C82.4,14.5,82.1,13.8,81.5,13.6z"/>
			<path fill="#BE1E2D" d="M97.8,10c0,0-8.6,3.6-8.6,3.6c-0.6,0.2-0.9,0.9-0.6,1.5c0.2,0.6,0.9,0.9,1.5,0.6c0,0,8.6-3.6,8.6-3.6
				c0.6-0.2,0.9-0.9,0.6-1.5C99.1,10,98.4,9.8,97.8,10z"/>
			<path fill="#ED4D9A" d="M90.1,2c0,0-4,9.7-4,9.7c-0.2,0.6,0,1.3,0.6,1.5c0.6,0.2,1.3,0,1.5-0.6c0,0,4-9.7,4-9.7
				c0.2-0.6,0-1.3-0.6-1.5C91,1.1,90.3,1.4,90.1,2z"/>
			<path fill="#88CC44" d="M81.1,23.5c0,0-4,9.7-4,9.7c-0.2,0.6,0,1.3,0.6,1.5c0.6,0.2,1.3,0,1.5-0.6c0,0,4-9.7,4-9.7
				c0.2-0.6,0-1.3-0.6-1.5C82.1,22.7,81.4,22.9,81.1,23.5z"/>
			<path fill="#88CC44" d="M77.6,23.5c0,0,2.9,6.9,2.9,6.9c0.2,0.6,0,1.3-0.6,1.5c-0.6,0.2-1.3,0-1.5-0.6c0,0-2.9-6.9-2.9-6.9
				c-0.2-0.6,0-1.3,0.6-1.5C76.6,22.7,77.3,22.9,77.6,23.5z"/>
			<path fill="#7961A9" d="M79.8,6.1c0,0,2.7,6.5,2.7,6.5c0.2,0.6,0.9,0.9,1.5,0.6c0.6-0.2,0.9-0.9,0.6-1.5c0,0-2.7-6.5-2.7-6.5
				c-0.2-0.6-0.9-0.9-1.5-0.6C79.8,4.8,79.5,5.5,79.8,6.1z"/>
			<path fill="#FFDD00" d="M86,21.2c0,0,3.6,8.6,3.6,8.7c0.2,0.6,0.9,0.9,1.5,0.6c0.6-0.2,0.9-0.9,0.6-1.5c0,0-3.6-8.6-3.6-8.7
				c-0.2-0.6-0.9-0.9-1.5-0.6C86.1,19.9,85.8,20.6,86,21.2z"/>
		</g>
		<path fill="#1FC3F3" d="M80.6,17.2c0,0-3.2,1.3-3.2,1.3c-0.6,0.2-0.9,0.9-0.6,1.5c0.2,0.6,0.9,0.9,1.5,0.6c0,0,3.2-1.3,3.2-1.3
			c0.6-0.2,0.9-0.9,0.6-1.5C81.9,17.2,81.2,16.9,80.6,17.2z"/>
		<g>
			<path opacity="0.5" fill="#FFFFFF" d="M88.6,17.8c-0.2,0.6,0,1.3,0.6,1.5c0,0,0.4,0.2,1,0.4c0.2-0.3,0.4-0.7,0.5-1
				c0.2-0.4,0.3-0.8,0.3-1.1c-0.6-0.2-1-0.4-1-0.4C89.5,16.9,88.8,17.2,88.6,17.8z"/>
			<path opacity="0.5" fill="#FFFFFF" d="M82.1,15.1c0.2-0.6,0-1.3-0.6-1.5c0,0-0.4-0.2-1-0.4c-0.2,0.3-0.4,0.7-0.5,1
				c-0.2,0.4-0.3,0.8-0.3,1.1c0.6,0.2,1,0.4,1,0.4C81.2,16,81.9,15.7,82.1,15.1z"/>
			<path opacity="0.5" fill="#FFFFFF" d="M89.2,13.6c-0.6,0.2-0.9,0.9-0.6,1.5c0.2,0.6,0.9,0.9,1.5,0.6c0,0,0.4-0.2,1-0.4
				c-0.2-0.8-0.5-1.5-0.9-2.2C89.6,13.4,89.2,13.6,89.2,13.6z"/>
			<path opacity="0.5" fill="#FFFFFF" d="M86.7,13.2c0.6,0.2,1.3,0,1.5-0.6c0,0,0.2-0.4,0.4-1c-0.3-0.2-0.7-0.4-1-0.5
				c-0.4-0.2-0.8-0.3-1.1-0.3c-0.2,0.6-0.4,1-0.4,1C85.8,12.3,86.1,13,86.7,13.2z"/>
			<path opacity="0.5" fill="#FFFFFF" d="M84,13.2c0.6-0.2,0.9-0.9,0.6-1.5c0,0-0.2-0.4-0.4-1c-0.8,0.2-1.5,0.5-2.2,0.9
				c0.2,0.6,0.4,1,0.4,1C82.7,13.2,83.4,13.5,84,13.2z"/>
			<path opacity="0.5" fill="#FFFFFF" d="M86.7,19.6c-0.6,0.2-0.9,0.9-0.6,1.5c0,0,0.2,0.4,0.4,1c0.8-0.1,1.5-0.5,2.2-0.9
				c-0.3-0.6-0.4-1-0.4-1C87.9,19.7,87.3,19.4,86.7,19.6z"/>
			<path opacity="0.5" fill="#FFFFFF" d="M82.1,17.8c-0.2-0.6-0.9-0.9-1.5-0.6c0,0-0.4,0.2-1,0.4c0.1,0.8,0.5,1.5,0.9,2.2
				c0.5-0.2,1-0.4,1-0.4C82.1,19.1,82.3,18.4,82.1,17.8z"/>
		</g>
		<g>
			<path fill="#88CC44" d="M2.3,32.3c-0.2,0-0.3,0-0.5-0.1C1.3,32,1,31.3,1.2,30.8l4-10c0.2-0.6,0.9-0.8,1.4-0.6
				c0.6,0.2,0.8,0.9,0.6,1.4l-4,10C3.1,32,2.7,32.3,2.3,32.3z"/>
			<path fill="#88CC44" d="M10.2,32.3c-0.4,0-0.8-0.3-0.9-0.7l-4-10c-0.2-0.6,0-1.2,0.6-1.4c0.6-0.2,1.2,0,1.4,0.6l4,10
				c0.2,0.6,0,1.2-0.6,1.4C10.5,32.3,10.3,32.3,10.2,32.3z"/>
			<g>
				<path fill="#88CC44" d="M9.2,29.8H3.3c-0.6,0-1.2-0.5-1.2-1.2c0-0.6,0.5-1.2,1.2-1.2h5.8c0.6,0,1.2,0.5,1.2,1.2
					C10.3,29.3,9.8,29.8,9.2,29.8z"/>
			</g>
		</g>
		<path opacity="0.6" fill="#88CC44" d="M52.1,28.3v-1.6h0c0-0.1,0-0.3,0-0.4h-1.2c-0.6,0-1.2,0.5-1.2,1.2c0,0.6,0.5,1.2,1.2,1.2
			h1.2C52.1,28.5,52.1,28.4,52.1,28.3L52.1,28.3z"/>
	</g>
</g>
</svg>
