<?xml version="1.0" encoding="utf-8"?>
<!-- Generator: Adobe Illustrator 19.2.1, SVG Export Plug-In . SVG Version: 6.00 Build 0)  -->
<svg version="1.1" id="Layer_1" xmlns="http://www.w3.org/2000/svg" xmlns:xlink="http://www.w3.org/1999/xlink" x="0px" y="0px"
	 viewBox="0 0 44 44" enable-background="new 0 0 44 44" xml:space="preserve">
<line fill="none" stroke="#A1A1A1" stroke-width="2" stroke-linecap="round" stroke-linejoin="round" stroke-miterlimit="10" x1="4.2" y1="21.9" x2="6.3" y2="21.9"/>
<line fill="none" stroke="#A1A1A1" stroke-width="2" stroke-linecap="round" stroke-linejoin="round" stroke-miterlimit="10" x1="38.6" y1="21.9" x2="40.7" y2="21.9"/>
<line fill="none" stroke="#A1A1A1" stroke-width="2" stroke-linecap="round" stroke-linejoin="round" stroke-miterlimit="10" x1="34.2" y1="10.8" x2="35.2" y2="9.8"/>
<line fill="none" stroke="#A1A1A1" stroke-width="2" stroke-linecap="round" stroke-linejoin="round" stroke-miterlimit="10" x1="22.5" y1="5.8" x2="22.5" y2="3.6"/>
<line fill="none" stroke="#A1A1A1" stroke-width="2" stroke-linecap="round" stroke-linejoin="round" stroke-miterlimit="10" x1="11.2" y1="10.5" x2="9.6" y2="9"/>
<circle fill="none" stroke="#A1A1A1" stroke-width="2" stroke-linecap="round" stroke-linejoin="round" stroke-miterlimit="10" cx="22.6" cy="21.9" r="3"/>
<line fill="none" stroke="#A1A1A1" stroke-width="2" stroke-linecap="round" stroke-linejoin="round" stroke-miterlimit="10" x1="25.4" y1="19.4" x2="30.3" y2="14.6"/>
<line fill="none" stroke="#A1A1A1" stroke-width="2" stroke-linecap="round" stroke-linejoin="round" stroke-miterlimit="10" x1="19.1" y1="25.9" x2="20.3" y2="24.7"/>
<g>
	<path fill="none" stroke="#A1A1A1" stroke-width="2" stroke-linecap="round" stroke-linejoin="round" stroke-miterlimit="10" d="
		M34.6,35.5c3.8-3.4,6.2-8.3,6.2-13.7c0-10.2-8.2-18.4-18.4-18.4C12.3,3.4,4,11.6,4,21.8c0,5.6,2.5,10.6,6.5,14
		c3.3-2.9,7.5-4.7,12.2-4.7C27.3,31.1,31.4,32.8,34.6,35.5z"/>
	<path fill="none" stroke="#A1A1A1" stroke-width="2" stroke-linecap="round" stroke-linejoin="round" stroke-miterlimit="10" d="
		M34.6,35.5c-3.3,2.9-7.5,4.7-12.2,4.7c-4.5,0-8.7-1.7-11.9-4.4"/>
	<path fill="none" stroke="#A1A1A1" stroke-width="2" stroke-linecap="round" stroke-linejoin="round" stroke-miterlimit="10" d="
		M34.6,35.5c-3.2-2.7-7.4-4.4-11.9-4.4c-4.7,0-9,1.8-12.2,4.7"/>
</g>
</svg>
