<?xml version="1.0" encoding="utf-8"?>
<!-- Generator: Adobe Illustrator 19.2.1, SVG Export Plug-In . SVG Version: 6.00 Build 0)  -->
<svg version="1.1" id="Layer_1" xmlns="http://www.w3.org/2000/svg" xmlns:xlink="http://www.w3.org/1999/xlink" x="0px" y="0px"
	 viewBox="0 0 44 44" enable-background="new 0 0 44 44" xml:space="preserve">
<rect x="10" y="1.9" fill="#A1A1A1" width="6.1" height="6.1"/>
<polygon fill="#A1A1A1" points="22,1.9 25.1,8 18.9,8 "/>
<circle fill="#A1A1A1" cx="4.1" cy="4.9" r="3.1"/>
<rect x="36.9" y="1.9" fill="#A1A1A1" width="6.1" height="6.1"/>
<circle fill="#A1A1A1" cx="31" cy="4.9" r="3.1"/>
<polygon fill="#A1A1A1" points="4,12.9 7.1,19 1,19 "/>
<rect x="18.9" y="12.9" fill="#A1A1A1" width="6.1" height="6.1"/>
<circle fill="#A1A1A1" cx="13" cy="15.9" r="3.1"/>
<polygon fill="#A1A1A1" points="31.1,12.9 34.1,19 28,19 "/>
<rect x="1" y="23.9" fill="#A1A1A1" width="6.1" height="6.1"/>
<polygon fill="#A1A1A1" points="13,23.9 16.1,30 10,30 "/>
<rect x="27.9" y="23.9" fill="#A1A1A1" width="6.1" height="6.1"/>
<circle fill="#A1A1A1" cx="22" cy="26.9" r="3.1"/>
<circle fill="#A1A1A1" cx="39.9" cy="15.9" r="3.1"/>
<polygon fill="#A1A1A1" points="40,23.9 43,30 36.9,30 "/>
<rect x="9.9" y="34.9" fill="#A1A1A1" width="6.1" height="6.1"/>
<circle fill="#A1A1A1" cx="4" cy="37.9" r="3.1"/>
<polygon fill="#A1A1A1" points="22.1,34.9 25.1,41 19,41 "/>
<circle fill="#A1A1A1" cx="31" cy="37.9" r="3.1"/>
<rect x="36.9" y="34.9" fill="#A1A1A1" width="6.1" height="6.1"/>
</svg>
