<?xml version="1.0" encoding="utf-8"?>
<!-- Generator: Adobe Illustrator 19.2.1, SVG Export Plug-In . SVG Version: 6.00 Build 0)  -->
<svg version="1.1" id="Layer_1" xmlns="http://www.w3.org/2000/svg" xmlns:xlink="http://www.w3.org/1999/xlink" x="0px" y="0px"
	 viewBox="0 0 44 44" enable-background="new 0 0 44 44" xml:space="preserve">
<rect x="-1" y="14.9" fill="none" width="30.2" height="21.5"/>
<line fill="none" stroke="#A1A1A1" stroke-miterlimit="10" x1="1" y1="42.5" x2="43" y2="42.5"/>
<line fill="none" stroke="#A1A1A1" stroke-miterlimit="10" x1="1.5" y1="43" x2="1.5" y2="1"/>
<path fill="none" stroke="#A1A1A1" stroke-miterlimit="10" d="M39.5,42.5c0,0-10-38.1-23-26.2c0,0-8.3,9.4-15-6.1"/>
<rect x="50" y="-72" fill="none" width="17" height="11.3"/>
<text transform="matrix(1 0 0 1 50 -63.6001)" fill="#A1A1A1" font-family="'PTSans-Italic'" font-size="12px">f(x)</text>
<path fill="#A1A1A1" d="M26,4.9c0.3,0,0.7,0,1,0c0.4,0,0.3-0.1,0.4-0.5c-0.4,0-0.8,0-1.3,0c0.1-0.6,0.5-2.5,1.4-1.9
	C27.6,2.5,27.8,3,27.8,3c0.1,0,0.4,0,0.4,0c0.1-0.1,0.2-0.7,0.2-0.8c-1.1-0.3-2.3,0.1-2.8,1.1c-0.2,0.3-0.2,1.1-0.6,1.2
	c-0.2,0.1-0.4,0.1-0.6,0.1c-0.1,0-0.1,0.3-0.1,0.3c0.3,0,0.6,0,0.8,0c-0.3,1.1-0.5,2.3-0.8,3.4c-0.1,0.4-0.2,0.9-0.3,1.3
	c-0.1,0.4-0.2,0.9-0.5,1.2c-0.1,0.1-0.6,0.1-0.6,0.1c0,0.1-0.1,0.3-0.1,0.4c1.8,0.3,2.1-1.8,2.4-3.1C25.5,7.1,25.7,6,26,4.9L26,4.9z
	 M31.1,3.9c0.2-0.4,0.5-0.7,0.8-1c0.2-0.1,0.4-0.3,0.6-0.4c0.2-0.1,0.3,0,0.2-0.3C32.7,2,32.7,2,32.5,2c-0.2,0.1-0.5,0.2-0.7,0.3
	c-0.4,0.2-0.8,0.6-1.1,0.9c-1.3,1.6-1.4,4.3-0.5,6.1c0.4,0.9,1.2,1.6,2.1,1.9c0.3,0.1,0.3,0.1,0.4-0.1c0.1-0.3,0-0.2-0.2-0.3
	c-0.4-0.2-0.8-0.5-1.1-0.9c-0.6-0.8-0.8-2-0.9-3C30.5,6,30.6,4.8,31.1,3.9C31.5,3.1,31.1,3.9,31.1,3.9z"/>
<path fill="#A1A1A1" d="M34.6,7.8C34.4,8,34.2,8.3,34,8.4c-0.3,0.1-0.2-0.2-0.5-0.2c-0.3,0-0.3,0.5-0.3,0.8
	c-0.1,0.2,0.4,0.2,0.5,0.2c0.3,0,0.5-0.2,0.7-0.4c0.2-0.2,0.9-1.4,1.1-1.4c0,0.5,0.1,1.5,0.6,1.7c0.7,0.4,1.3-0.3,1.7-0.9
	c-0.1-0.1-0.2-0.1-0.3-0.2c-0.2,0.3-0.7,0.9-1,0.2c-0.2-0.5-0.3-1-0.4-1.6c-0.1-0.3,0.2-0.5,0.4-0.8c0.1-0.1,0.9-1.2,1.1-0.8
	c0.3,0.6,0.8-0.7,0.5-0.8c-0.6-0.1-1,0.1-1.3,0.6c-0.3,0.3-0.5,0.9-0.9,1.1c-0.1-0.5-0.1-1.4-0.6-1.6c-0.7-0.3-1.3,0.3-1.7,0.9
	c0.1,0.1,0.2,0.1,0.2,0.2c0.2,0.1,0.2-0.2,0.3-0.3c0.2-0.3,0.6-0.3,0.7,0.1c0.2,0.5,0.3,1,0.4,1.5C35.4,7.1,34.8,7.5,34.6,7.8
	C34.4,8,34.6,7.8,34.6,7.8z M40.6,9.5c-0.2,0.4-0.5,0.8-0.8,1c-0.2,0.1-0.4,0.3-0.6,0.4c-0.2,0.1-0.3,0-0.2,0.3
	c0.1,0.2,0.1,0.2,0.4,0.1c0.2-0.1,0.5-0.2,0.7-0.3c0.4-0.3,0.8-0.6,1.1-1c1.2-1.7,1.3-4.3,0.3-6.1C40.9,3,40.1,2.3,39.2,2
	C39,2,39,2,38.9,2.2c-0.1,0.2,0,0.2,0.2,0.3C39.6,2.7,40,3,40.3,3.4C41.5,4.9,41.4,7.8,40.6,9.5C40.2,10.3,40.6,9.5,40.6,9.5z"/>
</svg>
