<?xml version="1.0" encoding="utf-8"?>
<!-- Generator: Adobe Illustrator 19.2.1, SVG Export Plug-In . SVG Version: 6.00 Build 0)  -->
<svg version="1.1" id="Layer_1" xmlns="http://www.w3.org/2000/svg" xmlns:xlink="http://www.w3.org/1999/xlink" x="0px" y="0px"
	 viewBox="0 0 44 44" enable-background="new 0 0 44 44" xml:space="preserve">
<g>
	<line fill="#FFFFFF" x1="4.7" y1="11.6" x2="21.9" y2="1.7"/>
	<path fill="#A1A1A1" d="M4.7,12.2c-0.2,0-0.5-0.1-0.6-0.3C4,11.6,4.1,11.2,4.4,11l17.1-9.9c0.3-0.2,0.7-0.1,0.9,0.2
		c0.2,0.3,0.1,0.7-0.2,0.9L5.1,12.2C5,12.2,4.9,12.2,4.7,12.2z"/>
</g>
<g>
	<line fill="#FFFFFF" x1="38.9" y1="11.5" x2="22" y2="1.8"/>
	<path fill="#A1A1A1" d="M38.9,12.2c-0.1,0-0.2,0-0.3-0.1L21.7,2.3c-0.3-0.2-0.4-0.6-0.2-0.9C21.6,1.1,22,1,22.4,1.2l16.9,9.7
		c0.3,0.2,0.4,0.6,0.2,0.9C39.4,12.1,39.1,12.2,38.9,12.2z"/>
</g>
<g>
	<ellipse fill="#A1A1A1" cx="21.9" cy="7.9" rx="2.3" ry="1.2"/>
</g>
<g>
	<ellipse fill="#A1A1A1" cx="15.2" cy="11.7" rx="2.3" ry="1.2"/>
</g>
<g>
	<ellipse fill="#A1A1A1" cx="28.5" cy="11.7" rx="2.3" ry="1.2"/>
</g>
<g>
	<ellipse fill="#A1A1A1" cx="21.8" cy="11.6" rx="2.3" ry="1.2"/>
</g>
<g>
	<ellipse fill="#A1A1A1" cx="21.9" cy="15.4" rx="2.3" ry="1.2"/>
</g>
<g>
	<path fill="#A1A1A1" d="M21.8,42.5c-0.1,0-0.2,0-0.3-0.1l-17.1-10C4.1,32.3,4,32,4,31.8v-20c0-0.4,0.3-0.7,0.7-0.7
		c0.3,0,0.3,0,9,5.1c4.2,2.5,8.5,5,8.5,5c0.2,0.1,0.3,0.3,0.3,0.6v20.1c0,0.2-0.1,0.5-0.3,0.6C22,42.4,21.9,42.5,21.8,42.5z
		 M5.4,31.4l15.8,9.2V22.1C15.6,18.9,8,14.4,5.4,12.9V31.4z"/>
</g>
<g>
	<path fill="#A1A1A1" d="M21.7,42.5c-0.4,0-0.7-0.3-0.7-0.7v-20c0-0.2,0.1-0.5,0.3-0.6l17.2-10c0.2-0.1,0.5-0.1,0.7,0
		c0.2,0.1,0.3,0.3,0.3,0.6v20.1c0,0.2-0.1,0.5-0.3,0.6c0,0-4.2,2.5-8.5,5C22.1,42.5,22,42.5,21.7,42.5z M22.4,22.1v18.5
		c2.7-1.5,10.4-6,15.9-9.2V12.9L22.4,22.1z"/>
</g>
<g>
	<path fill="#A1A1A1" d="M35.8,20.6c-0.2,1.1-1.1,2.2-2,2.6c-0.9,0.3-1.5-0.3-1.3-1.4c0.2-1.1,1.1-2.2,2-2.6
		C35.4,18.8,36,19.5,35.8,20.6z"/>
</g>
<g>
	<path fill="#A1A1A1" d="M29.1,32.2c-0.2,1.1-1.1,2.2-2,2.6c-0.9,0.3-1.5-0.3-1.3-1.4c0.2-1.1,1.1-2.2,2-2.6S29.3,31.1,29.1,32.2z"
		/>
</g>
<g>
	<path fill="#A1A1A1" d="M14.7,27.3c-0.2-1.2-1.2-2.5-2.2-2.9c-1-0.4-1.7,0.4-1.5,1.6c0.2,1.2,1.2,2.5,2.2,2.9
		C14.3,29.3,14.9,28.6,14.7,27.3z"/>
</g>
<g>
	<path fill="#A1A1A1" d="M32.3,26.5c-0.2,1.1-1.1,2.2-2,2.6c-0.9,0.3-1.5-0.3-1.3-1.4c0.2-1.1,1.1-2.2,2-2.6S32.5,25.4,32.3,26.5z"
		/>
</g>
</svg>
