<?xml version="1.0" encoding="utf-8"?>
<!-- Generator: Adobe Illustrator 19.2.1, SVG Export Plug-In . SVG Version: 6.00 Build 0)  -->
<svg version="1.1" id="Layer_1" xmlns="http://www.w3.org/2000/svg" xmlns:xlink="http://www.w3.org/1999/xlink" x="0px" y="0px"
	 viewBox="0 0 44 44" enable-background="new 0 0 44 44" xml:space="preserve">
<g>
	<path fill="#A1A1A1" d="M9.8,32.1c-0.6,0.8-1.3,1.6-2.1,2.2c-1.2,0.9-1-0.5-1.8-0.5c-0.5,0-0.9-0.2-1,0.3c-0.2,0.8-0.3,1.6-0.5,2.4
		c-0.2,0.9,0.4,0.8,1.3,0.8C7,37.3,8,36.8,9,35.8c0.6-0.7,3.5-5.3,4.1-5.2c0.2,1.8,0.5,5.5,2.4,6.5c2.7,1.3,4.9-1.3,6.2-3.2
		c-0.4-0.3-0.8-0.5-1.2-0.8c-0.6,1-2.5,3.4-3.4,1.4c-0.9-1.8-1.1-4-1.5-5.9c-0.2-1-0.3-1.1,0.3-1.8c0.4-0.5,0.7-0.9,1.1-1.4
		c0.6-0.7,2.8-4.2,4.1-3.5c0.3,0.2,0.2,0.7,0.4,0.7c0.3,0,0.6,0,0.9,0c0.5,0,0.4-0.1,0.5-0.6c0.2-0.7,1-2.7,0.2-2.9
		c-2.2-0.5-3.6,0.6-5,2.2c-1,1.2-2,3.3-3.2,4.1c-0.3-1.8-0.4-5.2-2.3-6.2c-2.6-1.3-4.9,1.2-6.2,3.2c0.4,0.3,0.8,0.5,1.2,0.8
		c0.5-0.8,1.2-2.1,2.4-2.1c1.2,0,1.4,1.7,1.7,2.6c0.4,1.6,0.7,3.2,1.1,4.9C11.6,29.8,10.7,31,9.8,32.1C9.1,32.9,9.8,32.1,9.8,32.1z"
		/>
	<path fill="#A1A1A1" d="M30.7,21c1.1-1.8,2.9-3.3,4.4-4.8c1.3-1.3,3-2.7,3.7-4.5c1.8-4.9-3-6.4-6.9-5.8c-1.2,0.2-3.7,0.5-3.7,1.8
		c0,0.9-0.4,1.9,0.6,1.9c0.3,0,1,0.1,1.2,0c0.3-0.9,0.9-1.7,1.7-2.2c1.8-1.1,4.2-0.3,4.6,1.8c0.8,3.8-3.9,6.8-6,9.3
		c-1,1.2-2.5,2.9-2.5,4.5c0,0.2,1.2,0.1,1.4,0.1c2.3,0,4.6,0,7,0c0.9,0,1.7,0,2.6,0c1,0,0.7-3,0.7-3.9c-0.3,0-0.6,0-0.9,0
		c-0.6,0-0.6,0.8-0.9,1.2C37,21.1,36,21,35.2,21C33.7,21,32.2,21,30.7,21C30.9,20.6,30.7,21,30.7,21z"/>
</g>
</svg>
