<?xml version="1.0" encoding="utf-8"?>
<!-- Generator: Adobe Illustrator 19.2.1, SVG Export Plug-In . SVG Version: 6.00 Build 0)  -->
<svg version="1.1" xmlns="http://www.w3.org/2000/svg" xmlns:xlink="http://www.w3.org/1999/xlink" x="0px" y="0px"
	 viewBox="0 0 42 36" style="enable-background:new 0 0 42 36;" xml:space="preserve">
<style type="text/css">
	.st0{fill:#999999;}
	.st1{fill:#E1E1E1;}
	.st2{fill:#F19300;}
	.st3{fill:#BDCD00;}
	.st4{fill:#E1007A;}
	.st5{fill:#735299;}
	.st6{fill:#40A52B;}
	.st7{fill:#009DDF;}
	.st8{fill:#1A171B;}
	.st9{fill:#059AD6;}
</style>
<g id="publisher_logo">
</g>
<g id="product_watermark">
</g>
<g id="favicon">
</g>
<g id="product_logo_icon">
</g>
<g id="product_full_logo">
	<g>
		<g>
			<g>
				<g>
					<g>
						<g>
							<path class="st2" d="M30.2,35.3c-0.3,0-0.6,0-0.9-0.1l-12.6-2.1c-0.2,0-2-0.4-2.3-1.5c-0.2-0.6,0.2-1.3,1-2.1l13.9-11.8
								c0.1-0.1,1.4-1.2,2.5-0.7c0.6,0.3,0.9,0.9,0.9,2l0.5,13.2c0,0.1,0,1.5-1,2.3C31.8,35.1,31.1,35.3,30.2,35.3z M16.8,32.3
								l12.6,2.1c1,0.2,1.8,0,2.3-0.4c0.7-0.6,0.7-1.7,0.7-1.7l-0.5-13.2c0-0.7-0.2-1.1-0.4-1.2c-0.4-0.2-1.2,0.3-1.6,0.6L16,30.3
								c-0.6,0.5-0.8,0.9-0.8,1.2C15.4,31.9,16.4,32.2,16.8,32.3L16.8,32.3z"/>
						</g>
					</g>
				</g>
				<g>
					<g>
						<g>
							<path class="st3" d="M33.1,33.4c-0.4,0-0.7,0-1.2-0.1l-15.7-2.6c-0.2,0-2.4-0.4-2.8-1.8c-0.2-0.8,0.2-1.6,1.3-2.5l17.4-14.7
								c0.2-0.1,1.8-1.4,3-0.9c0.7,0.3,1.1,1.1,1.1,2.4l0.6,16.5c0,0.1,0.1,1.8-1.2,2.8C35,33.1,34.1,33.4,33.1,33.4z M16.3,29.8
								L32,32.4c1.3,0.2,2.3,0,3-0.5c0.9-0.8,0.9-2.2,0.9-2.2l-0.6-16.5c0-0.6-0.1-1.4-0.6-1.6c-0.6-0.3-1.7,0.5-2.1,0.8L15.2,27.1
								c-0.7,0.6-1.1,1.2-1,1.6C14.4,29.4,15.8,29.7,16.3,29.8L16.3,29.8z"/>
						</g>
					</g>
				</g>
			</g>
		</g>
	</g>
	<g>
		<g>
			<g>
				<g>
					<g>
						<g>
							<path class="st4" d="M11.4,35.3c-0.9,0-1.6-0.2-2.1-0.7c-1-0.9-1-2.3-1-2.3l0.5-13.2c0-1.1,0.4-1.7,0.9-2
								c1-0.5,2.3,0.6,2.5,0.7l13.9,11.8c0.9,0.7,1.2,1.4,1,2.1c-0.3,1.1-2.1,1.4-2.3,1.5l-12.6,2.1C12,35.3,11.7,35.3,11.4,35.3z
								 M10.3,17.8c-0.1,0-0.1,0-0.2,0c-0.3,0.1-0.4,0.5-0.4,1.2L9.2,32.3c0,0,0,1.1,0.7,1.7c0.5,0.4,1.3,0.6,2.3,0.4l12.6-2.1
								c0.5-0.1,1.5-0.4,1.6-0.8c0.1-0.3-0.2-0.7-0.8-1.2L11.7,18.5C11.4,18.2,10.7,17.8,10.3,17.8z"/>
						</g>
					</g>
				</g>
				<g>
					<g>
						<g>
							<path class="st5" d="M8.5,33.4c-1.1,0-1.9-0.3-2.5-0.8c-1.2-1.1-1.2-2.8-1.2-2.8l0.6-16.5c0-1.3,0.4-2.1,1.1-2.4
								c1.2-0.5,2.8,0.8,3,0.9l17.4,14.7c1,0.9,1.5,1.7,1.3,2.5c-0.4,1.3-2.5,1.7-2.8,1.8L9.7,33.3C9.3,33.3,8.9,33.4,8.5,33.4z
								 M7.2,11.5c-0.1,0-0.2,0-0.3,0.1c-0.5,0.2-0.6,1-0.6,1.6L5.7,29.7c0,0,0,1.4,0.9,2.2c0.7,0.6,1.7,0.8,3,0.5l15.7-2.6
								c0.5-0.1,1.9-0.5,2.1-1.1c0.1-0.4-0.2-1-1-1.6L9,12.4C8.7,12.1,7.8,11.5,7.2,11.5z"/>
						</g>
					</g>
				</g>
			</g>
		</g>
	</g>
	<path class="st6" d="M28.6,23.5L13.4,10.6h-1.3l16,13.5c0.7,0.6,1.5,1.4,1.3,2.1c-0.2,0.9-2.1,1.4-2.7,1.5L7.1,31
		c-1.7,0.3-3,0-3.8-0.7c-1.2-1-1.2-2.8-1.1-2.8L2.8,6.9c0-0.8,0.2-1.9,0.8-2.1c0.1-0.1,0.3-0.1,0.4-0.1c0.4,0,0.8,0.2,1.2,0.4v-1
		C4.7,3.9,4,3.7,3.3,4C2.5,4.4,2,5.3,2,6.9L1.2,27.5c0,0.1-0.1,2.2,1.4,3.5c0.8,0.7,1.8,1,3.1,1c0.4,0,0.9,0,1.4-0.1l19.6-3.2
		c0.3,0,2.9-0.5,3.4-2.1C30.4,25.6,29.9,24.6,28.6,23.5z"/>
	<path class="st7" d="M40.4,27.5L39.6,6.9c-0.1-1.6-0.5-2.5-1.3-2.9c-0.6-0.3-1.4-0.1-2,0.1v1c0.6-0.3,1.2-0.5,1.7-0.3
		c0.6,0.3,0.8,1.3,0.8,2.1l0.8,20.6c0,0,0.1,1.7-1.1,2.8c-0.8,0.7-2.1,1-3.8,0.7l-19.6-3.2c-0.6-0.1-2.4-0.6-2.7-1.5
		c-0.2-0.7,0.6-1.5,1.3-2.1l16-13.5h-1.3L13,23.5c-1.3,1.1-1.8,2.1-1.5,3c0.4,1.6,3.1,2.1,3.4,2.1l19.6,3.2c0.5,0.1,1,0.1,1.4,0.1
		c1.3,0,2.3-0.3,3.1-1C40.4,29.6,40.4,27.5,40.4,27.5z"/>
	<g>
		<path class="st8" d="M34.6,3.7c0-1.5-1.2-2.7-2.7-2.7h-5.3c-1.5,0-2.7,1.2-2.7,2.7v2.9c0,1.5,1.2,2.7,2.7,2.7h5.3
			c1.5,0,2.7-1.2,2.7-2.7V3.7z M32,8.1h-5.5c-0.7,0-1.3-0.6-1.3-1.3V3.6c0-0.7,0.6-1.3,1.3-1.3H32c0.7,0,1.3,0.6,1.3,1.3v3.2
			C33.3,7.5,32.7,8.1,32,8.1z"/>
		<path class="st8" d="M17.7,5.1V3.7C17.7,2.2,16.5,1,15,1H9.7C8.2,1,7,2.2,7,3.7v1.4c0,0,0,0,0,0v3.5C7,9,7.3,9.3,7.7,9.3
			c0.3,0,0.5-0.2,0.6-0.5V5c0,0,0,0,0,0V3.6c0-0.7,0.6-1.3,1.3-1.3h2.1v5.2C11.7,7.7,12,8,12.3,8C12.7,8,13,7.7,13,7.4l0-5.2h2.1
			c0.7,0,1.3,0.6,1.3,1.3v0.5V5v3.8c0.1,0.3,0.3,0.5,0.6,0.5c0.3,0,0.6-0.3,0.6-0.6L17.7,5.1C17.7,5.1,17.7,5.1,17.7,5.1z"/>
	</g>
	<path class="st8" d="M20.8,9.3L20.8,9.3c-0.4,0-0.6-0.3-0.6-0.6v-7c0-0.3,0.3-0.6,0.6-0.6h0c0.3,0,0.6,0.3,0.6,0.6v7
		C21.4,9,21.1,9.3,20.8,9.3z"/>
</g>
<g id="Layer_7">
</g>
</svg>
