<?xml version="1.0" encoding="utf-8"?>
<!-- Generator: Adobe Illustrator 19.2.1, SVG Export Plug-In . SVG Version: 6.00 Build 0)  -->
<svg version="1.1" id="Layer_1" xmlns="http://www.w3.org/2000/svg" xmlns:xlink="http://www.w3.org/1999/xlink" x="0px" y="0px"
	 viewBox="0 0 44 44" enable-background="new 0 0 44 44" xml:space="preserve">
<g>
	<rect x="6.7" y="20.8" fill="#A1A1A1" width="3.6" height="22.1"/>
	<rect x="22" y="1.3" fill="#A1A1A1" width="3.6" height="41.7"/>
	<rect x="37.4" y="1" fill="#A1A1A1" width="3.6" height="41.9"/>
	<rect x="29.7" y="26.2" fill="#A1A1A1" width="3.6" height="16.7"/>
	<rect x="14.4" y="1.3" fill="#A1A1A1" width="3.6" height="41.5"/>
</g>
<line fill="#A1A1A1" stroke="#A1A1A1" stroke-miterlimit="10" x1="2.5" y1="1" x2="2.5" y2="43"/>
<line fill="#A1A1A1" stroke="#A1A1A1" stroke-miterlimit="10" x1="2" y1="6.5" x2="1" y2="6.5"/>
<line fill="#A1A1A1" stroke="#A1A1A1" stroke-miterlimit="10" x1="2" y1="10.5" x2="1" y2="10.5"/>
<line fill="#A1A1A1" stroke="#A1A1A1" stroke-miterlimit="10" x1="2" y1="14.5" x2="1" y2="14.5"/>
<line fill="#A1A1A1" stroke="#A1A1A1" stroke-miterlimit="10" x1="2" y1="18.5" x2="1" y2="18.5"/>
<line fill="#A1A1A1" stroke="#A1A1A1" stroke-miterlimit="10" x1="2" y1="22.5" x2="1" y2="22.5"/>
<line fill="#A1A1A1" stroke="#A1A1A1" stroke-miterlimit="10" x1="2" y1="26.5" x2="1" y2="26.5"/>
<line fill="#A1A1A1" stroke="#A1A1A1" stroke-miterlimit="10" x1="2" y1="30.5" x2="1" y2="30.5"/>
<line fill="#A1A1A1" stroke="#A1A1A1" stroke-miterlimit="10" x1="2" y1="34.5" x2="1" y2="34.5"/>
<line fill="#A1A1A1" stroke="#A1A1A1" stroke-miterlimit="10" x1="2" y1="38.5" x2="1" y2="38.5"/>
<line fill="#A1A1A1" stroke="#A1A1A1" stroke-miterlimit="10" x1="43" y1="42.5" x2="1" y2="42.5"/>
<line fill="#A1A1A1" stroke="#A1A1A1" stroke-miterlimit="10" x1="2" y1="2.5" x2="1" y2="2.5"/>
</svg>
