<?xml version="1.0" encoding="utf-8"?>
<!-- Generator: Adobe Illustrator 19.2.1, SVG Export Plug-In . SVG Version: 6.00 Build 0)  -->
<svg version="1.1" id="Layer_1" xmlns="http://www.w3.org/2000/svg" xmlns:xlink="http://www.w3.org/1999/xlink" x="0px" y="0px"
	 viewBox="0 0 44 44" enable-background="new 0 0 44 44" xml:space="preserve">
<g>
	<path fill="#A1A1A1" d="M3.3,11c0-1.7,0.2-3.2,0.7-4.4c0.5-1.2,1.1-2.2,1.9-3c0.8-0.8,1.7-1.4,2.8-1.7c1.1-0.4,2.3-0.5,3.5-0.5
		s2.4,0.2,3.5,0.5c1.1,0.3,2,0.9,2.8,1.7c0.8,0.8,1.4,1.8,1.9,3c0.5,1.2,0.7,2.7,0.7,4.5c0,1.8-0.2,3.3-0.7,4.5
		c-0.5,1.2-1.1,2.2-1.9,3c-0.8,0.8-1.7,1.3-2.8,1.7c-1.1,0.3-2.3,0.5-3.5,0.5s-2.4-0.2-3.5-0.5c-1.1-0.3-2-0.9-2.8-1.7
		c-0.8-0.8-1.4-1.8-1.9-3C3.5,14.3,3.3,12.8,3.3,11z M35.6,1.3l2.8,2.2L9.1,42.6l-2.8-2.2L35.6,1.3z M7.5,11c0,2.3,0.4,3.9,1.2,4.9
		c0.8,1,1.9,1.5,3.4,1.5c0.7,0,1.4-0.1,1.9-0.3c0.6-0.2,1.1-0.6,1.5-1c0.4-0.5,0.7-1.1,0.9-1.9c0.2-0.8,0.3-1.9,0.3-3.1
		s-0.1-2.3-0.3-3.1c-0.2-0.8-0.5-1.5-0.9-1.9c-0.4-0.5-0.9-0.8-1.5-1c-0.6-0.2-1.2-0.3-1.9-0.3c-1.4,0-2.6,0.4-3.4,1.3
		C7.9,6.9,7.5,8.5,7.5,11z M23.6,32.1c0-1.7,0.2-3.2,0.7-4.4s1.1-2.2,1.9-3c0.8-0.8,1.7-1.4,2.8-1.7c1.1-0.4,2.3-0.5,3.5-0.5
		c1.3,0,2.4,0.2,3.5,0.5c1.1,0.3,2,0.9,2.8,1.7c0.8,0.8,1.4,1.8,1.9,3c0.5,1.2,0.7,2.7,0.7,4.5s-0.2,3.3-0.7,4.5
		c-0.5,1.2-1.1,2.2-1.9,3c-0.8,0.8-1.7,1.3-2.8,1.7s-2.3,0.5-3.5,0.5c-1.3,0-2.4-0.2-3.5-0.5s-2-0.9-2.8-1.7c-0.8-0.8-1.4-1.8-1.9-3
		C23.8,35.4,23.6,33.9,23.6,32.1z M27.8,32.1c0,2.3,0.4,3.9,1.2,4.9c0.8,1,1.9,1.5,3.4,1.5c0.7,0,1.4-0.1,1.9-0.3
		c0.6-0.2,1.1-0.5,1.5-1c0.4-0.5,0.7-1.1,0.9-1.9c0.2-0.8,0.3-1.9,0.3-3.1S37,29.8,36.7,29c-0.2-0.8-0.5-1.5-0.9-1.9
		c-0.4-0.5-0.9-0.8-1.5-1s-1.2-0.3-1.9-0.3c-1.4,0-2.6,0.4-3.4,1.3C28.2,27.9,27.8,29.6,27.8,32.1z"/>
</g>
</svg>
