<?xml version="1.0" encoding="utf-8"?>
<!-- Generator: Adobe Illustrator 19.2.1, SVG Export Plug-In . SVG Version: 6.00 Build 0)  -->
<svg version="1.1" id="Layer_1" xmlns="http://www.w3.org/2000/svg" xmlns:xlink="http://www.w3.org/1999/xlink" x="0px" y="0px"
	 viewBox="0 0 44 44" enable-background="new 0 0 44 44" xml:space="preserve">
<path fill="#A1A1A1" d="M16.2,38.3c-0.6,0.6-2,1.8-3,1.3c-0.4-0.2-0.5-0.8-0.5-1.2c-0.1-0.1-1,0-1.2,0c-0.9,0-1,2.8-1.2,3.6
	c-0.1,0.5,2,0.4,2.3,0.4c1.5-0.2,2.7-0.9,3.8-1.8c2.2-1.8,4-4.3,5.7-6.7c4-5.4,7.4-11.3,9.7-17.6c-0.1-1.4-1.7-1-2.7-1
	c-0.8,0-1.6,0-2.4,0c-0.7,0-0.6,0.2-0.7,1c5.1,0.3-2.7,12.9-3.9,14.6c-0.5-4.2-0.9-8.7-2.2-12.7c-0.4-1.8-1.4-3.2-3.4-3.2
	c-2.3,0-3.9,1.9-5.1,3.7c0.2,0.2,1,0.9,1.2,0.8c0.6-0.9,1.6-2.6,2.9-2.2c1.3,0.4,1.6,4.1,1.9,5.3c0.6,2.8,1.1,5.7,1.7,8.6
	c0.1,0.6,0.2,1.2,0.3,1.8c0.2,1.1,0,1.3-0.7,2.3C18.1,36.2,17.2,37.3,16.2,38.3C15.2,39.2,16.2,38.3,16.2,38.3z"/>
</svg>
