<?xml version="1.0" encoding="utf-8"?>
<!-- Generator: Adobe Illustrator 19.2.1, SVG Export Plug-In . SVG Version: 6.00 Build 0)  -->
<svg version="1.1" id="Layer_1" xmlns="http://www.w3.org/2000/svg" xmlns:xlink="http://www.w3.org/1999/xlink" x="0px" y="0px"
	 viewBox="0 0 44 44" enable-background="new 0 0 44 44" xml:space="preserve">
<rect x="-332" y="-101" fill="none" width="217" height="155"/>
<path fill="#A1A1A1" d="M17.8,29.4c-0.7,0.8-1.5,1.9-2.4,2.4c-1.2,0.5-0.9-0.7-2-0.7c-1.3,0-1.1,2-1.3,3.1c-0.2,0.9,1.4,0.7,2,0.6
	c1.2-0.1,2.1-0.8,2.8-1.6c0.7-0.8,3.7-5.5,4.3-5.4c0.2,2,0.5,5.8,2.5,6.8c2.8,1.4,5.1-1.3,6.5-3.4c-0.4-0.3-0.9-0.6-1.3-0.8
	c-0.8,1.3-2.9,3.6-3.8,1c-0.7-2-1.1-4.1-1.5-6.2c-0.2-1.2,0.9-2.1,1.7-3c0.4-0.5,3.5-4.9,4.4-3.2c1.2,2.5,3-2.9,1.8-3.2
	c-2.3-0.5-3.7,0.6-5.1,2.2c-1.1,1.3-2.1,3.6-3.5,4.4c-0.3-1.9-0.4-5.5-2.4-6.5c-2.8-1.4-5.2,1.3-6.5,3.4c0.3,0.2,0.6,0.4,0.9,0.6
	c0.6,0.4,0.9-0.7,1.4-1.2c1-1.1,2.3-1,2.8,0.5c0.6,1.9,1,3.9,1.4,5.9C20.8,26.5,18.7,28.2,17.8,29.4C17.1,30.2,17.8,29.4,17.8,29.4z
	"/>
</svg>
